<?xml version="1.0" encoding="iso-8859-1"?>
<!-- Generator: Adobe Illustrator 19.0.0, SVG Export Plug-In . SVG Version: 6.00 Build 0)  -->
<svg xmlns="http://www.w3.org/2000/svg" xmlns:xlink="http://www.w3.org/1999/xlink" version="1.1" id="Capa_1" x="0px" y="0px" viewBox="0 0 60.015 60.015" style="enable-background:new 0 0 60.015 60.015;" xml:space="preserve" width="512px" height="512px">
<g>
	<g>
		<path d="M40,58.008H2v-52c0-0.2,0-4,4-4h35.5c-0.9,1-1.5,2.4-1.5,4v7h2v-6h9c0.6,0,1-0.4,1-1c0-3.4-2.6-6-6-6H6c-4.7,0-6,3.9-6,6    v53c0,0.6,0.4,1,1,1h40c0.6,0,1-0.4,1-1v-12h-2V58.008z M49.9,5.008h-7.8c0.1-0.4,0.3-0.8,0.5-1.2l0.1-0.1    c0.1-0.2,0.2-0.3,0.4-0.4c0.1-0.1,0.1-0.1,0.2-0.2c0.1-0.1,0.2-0.2,0.4-0.3c0.1,0,0.1-0.1,0.2-0.1c0.1-0.1,0.3-0.2,0.5-0.2    c0.1,0,0.1-0.1,0.2-0.1c0.2-0.1,0.4-0.1,0.5-0.2c0.1,0,0.1,0,0.2,0c0.2,0,0.5-0.1,0.8-0.1C47.9,2.008,49.5,3.308,49.9,5.008z" fill="#f2b9b2"/>
		<rect x="5" y="6.008" width="8" height="2" fill="#f2b9b2"/>
		<rect x="5" y="10.008" width="14" height="2" fill="#f2b9b2"/>
		<rect x="5" y="16.008" width="22" height="2" fill="#f2b9b2"/>
		<rect x="5" y="21.008" width="26" height="2" fill="#f2b9b2"/>
		<rect x="5" y="26.008" width="26" height="2" fill="#f2b9b2"/>
		<rect x="5" y="31.008" width="26" height="2" fill="#f2b9b2"/>
		<rect x="5" y="36.008" width="26" height="2" fill="#f2b9b2"/>
		<rect x="17" y="43.008" width="2" height="2" fill="#f2b9b2"/>
		<rect x="17" y="47.008" width="2" height="2" fill="#f2b9b2"/>
		<rect x="17" y="51.008" width="2" height="2" fill="#f2b9b2"/>
		<rect x="21" y="43.008" width="2" height="2" fill="#f2b9b2"/>
		<rect x="21" y="47.008" width="2" height="2" fill="#f2b9b2"/>
		<rect x="21" y="51.008" width="2" height="2" fill="#f2b9b2"/>
		<rect x="25" y="43.008" width="2" height="2" fill="#f2b9b2"/>
		<rect x="25" y="47.008" width="2" height="2" fill="#f2b9b2"/>
		<rect x="25" y="51.008" width="2" height="2" fill="#f2b9b2"/>
		<rect x="29" y="43.008" width="2" height="2" fill="#f2b9b2"/>
		<rect x="29" y="47.008" width="2" height="2" fill="#f2b9b2"/>
		<rect x="29" y="51.008" width="2" height="2" fill="#f2b9b2"/>
		<path d="M59.9,31.508l-3.9-7.7c0-0.1-0.1-0.3-0.1-0.4c-0.2-0.3-0.6-0.5-0.9-0.5h-8h-8c-0.4,0-0.7,0.2-0.9,0.5c0,0.1,0,0.2-0.1,0.2    l-3.9,7.9l0,0l0,0c-0.2,0.3-0.2,0.7,0,1c0.1,0.1,0.1,0.1,0.2,0.2l11.9,14.9c0.2,0.3,0.5,0.4,0.8,0.4s0.6-0.1,0.8-0.4l11.9-14.8    c0.1-0.1,0.2-0.2,0.2-0.3C60,32.208,60.1,31.808,59.9,31.508z M51,29.708l-2.4-4.7h4.7L51,29.708z M43,29.708l-2.4-4.7h4.7    L43,29.708z M39,26.208l2.3,4.7h-4.7L39,26.208z M47,26.208l2.3,4.7h-4.7L47,26.208z M52.7,30.908l2.3-4.7l2.3,4.7H52.7z     M43,33.008h3v11.1l-8.9-11.1H43z M48,44.108v-11.1h3h5.9L48,44.108z" fill="#f2b9b2"/>
		<path d="M44,17.008v2h12.6l-1.3,1.3l1.4,1.4l3-3c0.4-0.4,0.4-1,0-1.4l-3-3l-1.4,1.4l1.3,1.3H44z" fill="#f2b9b2"/>
		<rect x="40" y="17.008" width="2" height="2" fill="#f2b9b2"/>
		<rect x="36" y="17.008" width="2" height="2" fill="#f2b9b2"/>
		<path d="M14.7,45.808l-1.4-1.4l-5.1,5.1l-1.3-2l-1.7,1.1l2,3c0.1,0.2,0.4,0.4,0.8,0.4c0.3,0,0.5-0.1,0.7-0.2L14.7,45.808z" fill="#f2b9b2"/>
	</g>
</g>
<g>
</g>
<g>
</g>
<g>
</g>
<g>
</g>
<g>
</g>
<g>
</g>
<g>
</g>
<g>
</g>
<g>
</g>
<g>
</g>
<g>
</g>
<g>
</g>
<g>
</g>
<g>
</g>
<g>
</g>
</svg>
